HIERARCHY
ROOT Hips
{
	OFFSET 0.000000 0.000000 0.000000
	CHANNELS 6 Xposition Yposition Zposition Xrotation Yrotation Zrotation
	JOINT LeftUpLeg_virtual
	{
		OFFSET 0.000000 0.000000 0.000000
		CHANNELS 3 Xrotation Yrotation Zrotation
		JOINT LeftUpLeg
		{
			OFFSET 13.026900 -6.336304 -1.092800
			CHANNELS 3 Xrotation Yrotation Zrotation
			JOINT LeftLeg
			{
				OFFSET 0.524474 -46.096886 9.782700
				CHANNELS 3 Xrotation Yrotation Zrotation
				JOINT LeftFoot
				{
					OFFSET -0.524474 -53.427422 -12.948200
					CHANNELS 3 Xrotation Yrotation Zrotation
					JOINT LeftToeBase
					{
						OFFSET 0.192200 -14.009700 16.364100
						CHANNELS 3 Xrotation Yrotation Zrotation
						JOINT LeftToe_End
						{
							OFFSET -1.784700 -0.561700 9.474800
							CHANNELS 3 Xrotation Yrotation Zrotation
							End Site
							{
								OFFSET 0 0 0
							}
						}
					}
				}
			}
		}
	}
	JOINT RightUpLeg_virtual
	{
		OFFSET 0.000000 0.000000 0.000000
		CHANNELS 3 Xrotation Yrotation Zrotation
		JOINT RightUpLeg
		{
			OFFSET -12.883000 -6.336304 -1.092800
			CHANNELS 3 Xrotation Yrotation Zrotation
			JOINT RightLeg
			{
				OFFSET -0.524587 -46.096825 9.782800
				CHANNELS 3 Xrotation Yrotation Zrotation
				JOINT RightFoot
				{
					OFFSET 0.524587 -53.427383 -12.948300
					CHANNELS 3 Xrotation Yrotation Zrotation
					JOINT RightToeBase
					{
						OFFSET -0.192200 -14.009700 16.364100
						CHANNELS 3 Xrotation Yrotation Zrotation
						JOINT RightToe_End
						{
							OFFSET 1.784700 -0.561700 9.474800
							CHANNELS 3 Xrotation Yrotation Zrotation
							End Site
							{
								OFFSET 0 0 0
							}
						}
					}
				}
			}
		}
	}
	JOINT Spine_virtual
	{
		OFFSET 0.000000 0.000000 0.000000
		CHANNELS 3 Xrotation Yrotation Zrotation
		JOINT Spine
		{
			OFFSET 0.072000 7.257294 -0.789700
			CHANNELS 3 Xrotation Yrotation Zrotation
			JOINT Spine1
			{
				OFFSET 0.000000 12.508769 -0.658067
				CHANNELS 3 Xrotation Yrotation Zrotation
				JOINT Spine1_split
				{
					OFFSET 0.000000 12.508769 -0.658067
					CHANNELS 3 Xrotation Yrotation Zrotation
					JOINT Spine2
					{
						OFFSET 0.000000 12.508769 -0.658067
						CHANNELS 3 Xrotation Yrotation Zrotation
						JOINT Neck_virtual
						{
							OFFSET 0.000000 0.000000 0.000000
							CHANNELS 3 Xrotation Yrotation Zrotation
							JOINT Neck
							{
								OFFSET 0.000000 14.033295 7.520400
								CHANNELS 3 Xrotation Yrotation Zrotation
								JOINT Head
								{
									OFFSET 0.000000 8.198502 5.703100
									CHANNELS 3 Xrotation Yrotation Zrotation
									JOINT HeadTop_End
									{
										OFFSET 0.000000 17.760803 13.332701
										CHANNELS 3 Xrotation Yrotation Zrotation
										End Site
										{
											OFFSET 0 0 0
										}
									}
								}
							}
						}
						JOINT LeftShoulder_virtual
						{
							OFFSET 0.000000 0.000000 0.000000
							CHANNELS 3 Xrotation Yrotation Zrotation
							JOINT LeftShoulder
							{
								OFFSET 6.292450 5.785301 -0.669000
								CHANNELS 3 Xrotation Yrotation Zrotation
								JOINT LeftShoulder_split
								{
									OFFSET 6.292450 5.785301 -0.669000
									CHANNELS 3 Xrotation Yrotation Zrotation
									JOINT LeftArm
									{
										OFFSET 13.907140 -6.093903 1.965100
										CHANNELS 3 Xrotation Yrotation Zrotation
										JOINT LeftForeArm
										{
											OFFSET 34.140198 0.000000 0.000000
											CHANNELS 3 Xrotation Yrotation Zrotation
											JOINT LeftHand
											{
												OFFSET 40.960209 0.000000 0.000000
												CHANNELS 3 Xrotation Yrotation Zrotation
												End Site
												{
													OFFSET 0 0 0
												}
											}
										}
									}
								}
							}
						}
						JOINT RightShoulder_virtual
						{
							OFFSET 0.000000 0.000000 0.000000
							CHANNELS 3 Xrotation Yrotation Zrotation
							JOINT RightShoulder
							{
								OFFSET -6.292450 5.785301 -0.669000
								CHANNELS 3 Xrotation Yrotation Zrotation
								JOINT RightShoulder_split
								{
									OFFSET -6.292450 5.785301 -0.669000
									CHANNELS 3 Xrotation Yrotation Zrotation
									JOINT RightArm
									{
										OFFSET -13.907140 -6.093903 1.965100
										CHANNELS 3 Xrotation Yrotation Zrotation
										JOINT RightForeArm
										{
											OFFSET -34.140198 0.000000 0.000000
											CHANNELS 3 Xrotation Yrotation Zrotation
											JOINT RightHand
											{
												OFFSET -40.960209 0.000000 0.000000
												CHANNELS 3 Xrotation Yrotation Zrotation
												End Site
												{
													OFFSET 0 0 0
												}
											}
										}
									}
								}
							}
						}
					}
				}
			}
		}
	}
}
MOTION
Frames: 5
Frame Time: 0.03333333
12.838211 14.223152 -18.629658 0.000000 0.000000 0.000000 -82.021501 64.040646 -6.981677 -88.961773 8.465494 5.385653 84.738277 4.395392 -3.920399 15.183007 -0.529838 9.556559 5.454085 -0.097491 -0.375218 0.000000 0.000000 0.000000 -88.434858 68.916486 -0.755413 -32.526307 12.681716 6.762782 72.598948 -0.462175 -2.055126 29.109214 -2.079962 14.168119 -4.539970 0.393467 1.568103 0.000000 0.000000 0.000000 -77.913382 65.486139 -12.469586 15.949960 -8.067539 -6.426801 11.375374 -4.120144 -4.927279 0.640545 0.063458 0.560581 0.000000 0.000000 0.000000 10.078106 -5.396639 -3.532300 -3.148163 6.471252 -17.102616 -28.197379 13.453453 -14.100779 0.000000 0.000000 0.000000 10.307762 -4.791818 -4.112995 3.471411 -7.859981 30.508747 -2.925612 -0.773320 -0.922168 -89.396398 26.568403 -56.891231 2.356872 -30.017947 1.038489 0.000000 0.000000 0.000000 11.357361 -4.889010 -3.863987 5.106824 11.616707 -17.599289 14.899154 3.588390 0.104140 -47.685461 33.505957 105.293773 175.734005 72.962410 -175.462096 0.000000 0.000000 0.000000 
12.925258 14.221313 -18.770794 0.000000 0.000000 0.000000 -81.450122 63.955781 -7.292346 -89.122091 8.682219 5.500058 84.463438 4.202763 -3.978857 15.022081 -0.934300 9.536638 5.486994 -0.119363 -0.280405 0.000000 0.000000 0.000000 -87.867358 68.639453 -1.471801 -32.641406 12.451837 6.797110 72.837991 -0.473056 -2.097148 29.148761 -2.019122 14.102989 -4.528576 0.419095 1.543568 0.000000 0.000000 0.000000 -77.556593 65.430268 -12.531901 15.868806 -8.041303 -6.378039 11.382209 -4.198057 -4.870814 0.791684 0.401579 0.434759 0.000000 0.000000 0.000000 9.931216 -5.498995 -3.498764 -3.062488 6.404564 -17.123819 -28.051502 13.172150 -14.140924 0.000000 0.000000 0.000000 10.314795 -4.877220 -4.017934 3.346981 -7.668849 30.222668 -2.512448 -1.006594 -0.414286 -89.366407 26.298310 -57.117033 2.285205 -30.253602 0.873448 0.000000 0.000000 0.000000 11.309869 -4.993513 -3.819392 5.086604 11.699830 -17.376044 15.276212 3.525153 0.160891 -47.729604 33.521926 105.428689 175.873710 72.883350 -175.582239 0.000000 0.000000 0.000000 
13.008148 14.210381 -18.906452 0.000000 0.000000 0.000000 -81.116310 63.870028 -7.463190 -89.285496 9.091670 5.814302 84.155492 3.963654 -4.124128 14.565416 -1.325714 9.623867 5.561064 -0.150396 -0.233461 0.000000 0.000000 0.000000 -87.265263 68.331262 -2.211667 -32.706825 12.218995 6.860225 73.046134 -0.390016 -2.176022 29.216011 -1.826091 14.321332 -4.747632 0.428333 1.502289 0.000000 0.000000 0.000000 -77.449455 65.507743 -12.308268 15.791478 -8.007920 -6.266238 11.357456 -4.293504 -4.765135 0.691919 0.764032 0.114750 0.000000 0.000000 0.000000 9.739707 -5.621782 -3.428381 -2.695785 6.243099 -17.287661 -27.855542 12.690157 -14.144475 0.000000 0.000000 0.000000 10.283566 -4.976235 -3.867452 3.149620 -7.411066 29.918377 -2.020690 -1.177893 0.250607 -89.126968 25.888676 -57.694062 2.370621 -29.904115 0.779169 0.000000 0.000000 0.000000 11.225712 -5.097737 -3.681728 5.006905 11.726888 -17.101622 15.460053 3.527135 0.146342 -47.640030 33.833902 105.425302 175.902670 73.240576 -175.698803 0.000000 0.000000 0.000000 
13.023767 14.214912 -18.974445 0.000000 0.000000 0.000000 -81.083846 63.834647 -7.399352 -89.377970 9.602756 6.242004 83.922855 3.707247 -4.308540 13.835606 -1.665708 9.856791 5.660525 -0.189408 -0.236304 0.000000 0.000000 0.000000 -86.771495 68.046101 -2.789251 -32.639046 11.984492 6.938761 73.062527 -0.299288 -2.293914 29.127793 -1.675049 14.690021 -5.066288 0.422275 1.468722 0.000000 0.000000 0.000000 -77.594897 65.731808 -11.821152 15.721738 -7.943737 -6.140569 11.290252 -4.368881 -4.644147 0.534850 1.085624 -0.135439 0.000000 0.000000 0.000000 9.536778 -5.722478 -3.347358 -2.119108 5.964980 -17.575489 -27.635801 12.076049 -14.132295 0.000000 0.000000 0.000000 10.193937 -5.054861 -3.701583 2.935010 -7.153860 29.629726 -1.708272 -1.102984 0.738453 -88.844505 25.321835 -58.362122 2.567076 -29.168203 0.744372 0.000000 0.000000 0.000000 11.098112 -5.167123 -3.512782 4.916396 11.643516 -16.875097 15.369850 3.666760 0.130787 -47.509966 34.406053 105.319762 175.927669 73.760005 -175.897752 0.000000 0.000000 0.000000 
12.994699 14.276527 -18.978001 0.000000 0.000000 0.000000 -81.284374 63.811145 -7.148754 -89.379534 10.040621 6.663130 83.779264 3.363861 -4.426862 12.961950 -2.014745 10.087896 5.749643 -0.226580 -0.269100 0.000000 0.000000 0.000000 -86.540696 67.800931 -3.048316 -32.481053 11.754917 6.980601 72.942937 -0.253227 -2.425100 28.933805 -1.639416 15.162769 -5.305444 0.401816 1.481338 0.000000 0.000000 0.000000 -77.976868 66.037165 -11.135695 15.652070 -7.829885 -6.048109 11.172873 -4.400048 -4.529419 0.497991 1.235399 -0.270102 0.000000 0.000000 0.000000 9.331112 -5.757424 -3.273577 -1.438835 5.595990 -17.950994 -27.469981 11.441624 -14.116036 0.000000 0.000000 0.000000 10.028719 -5.092243 -3.558833 2.762550 -6.985097 29.359773 -1.483930 -0.675346 1.057677 -88.612825 24.534555 -58.895533 2.791563 -28.375271 0.722398 0.000000 0.000000 0.000000 10.913940 -5.178117 -3.362513 4.850064 11.486433 -16.703725 15.005447 3.843374 0.131461 -47.276599 35.159806 105.123489 175.990588 74.182657 -176.165482 0.000000 0.000000 0.000000 
